<?xml version="1.0" encoding="UTF-8"?><svg id="Camada_1" xmlns="http://www.w3.org/2000/svg" width="299.22" height="53.09" xmlns:xlink="http://www.w3.org/1999/xlink" viewBox="0 0 299.22 53.09"><defs><style>.cls-1,.cls-2,.cls-3{fill:#fff;}.cls-2{fill-rule:evenodd;}.cls-3{font-family:CenturyGothic-Bold, 'Century Gothic';font-size:9.86px;font-weight:700;letter-spacing:.48em;}.cls-4{clip-path:url(#clippath);}</style><clipPath id="clippath"><path class="cls-1" d="M9.85,21.31v11.59h4.18c1.83,0,3.33-1.41,3.33-3.14v-8.44h-7.51Z"/></clipPath></defs><path class="cls-1" d="M9.85,21.31v11.59h4.18c1.83,0,3.33-1.41,3.33-3.14v-8.44h-7.51Z"/><g class="cls-4"><rect class="cls-1" x="9.85" y="21.31" width="7.51" height="11.59"/></g><path class="cls-1" d="M17.37,5.43h1.42c1.77,0,3.01.37,3.73,1.1.72.73,1.08,1.96,1.08,3.68s-.35,3.03-1.06,3.79c-.71.76-1.91,1.13-3.57,1.13H5.65L0,20.62h19.01c3.94,0,6.89-.85,8.88-2.56,1.98-1.71,2.98-4.27,2.98-7.67,0-2.06-.39-3.85-1.18-5.37-.78-1.53-1.94-2.73-3.47-3.62-.84-.49-1.88-.85-3.14-1.07C22,.13,20.58.03,18.82,0c-.05,0-1.4,0-1.45,0v5.43Z"/><rect class="cls-1" x="9.85" y="0" width="7.51" height="14.35"/><path class="cls-1" d="M18.01,21.29v9.19c4.52-1.47,7.89-5.51,8.36-10.39-2.7,1.22-5.48,1.2-8.36,1.2"/><path class="cls-2" d="M38.1,4.82h2.99v25.2c-.04,1.4-1.2,2.53-2.6,2.53h-2.99V7.34c.04-1.39,1.2-2.52,2.6-2.52"/><path class="cls-2" d="M55.12,23.55c-.23-.02-.47-.04-.72-.06-.25-.01-.56-.02-.95-.02-1.34,0-2.35.26-3.04.78-.68.52-1.03,1.27-1.03,2.26,0,.8.22,1.42.67,1.87.44.45,1.06.68,1.84.68,1.1,0,1.91-.36,2.43-1.07.52-.72.79-1.84.79-3.36v-1.09ZM60.6,21.56v7.07c0,.5,0,.97.02,1.39-.04,1.39-1.2,2.52-2.6,2.52h-2.45l-.22-2.47c-.75.96-1.59,1.68-2.54,2.15-.94.48-1.99.72-3.13.72-1.67,0-3.01-.54-4.02-1.62-1.02-1.09-1.53-2.5-1.53-4.26,0-2.13.78-3.77,2.35-4.91,1.57-1.14,3.82-1.71,6.76-1.71h1.88v-.54c0-1.03-.31-1.81-.94-2.33-.62-.52-1.55-.79-2.76-.79-.87,0-1.74.15-2.6.45-.86.3-1.67.75-2.4,1.33l-.29-4.27c1.18-.43,2.33-.76,3.43-.99,1.1-.22,2.17-.33,3.19-.33,2.92,0,4.96.61,6.11,1.83,1.16,1.22,1.74,3.48,1.74,6.77"/><path class="cls-2" d="M124,23.55c-.23-.02-.47-.04-.72-.06-.25-.01-.56-.02-.95-.02-1.34,0-2.35.26-3.04.78-.68.52-1.03,1.27-1.03,2.26,0,.8.22,1.42.67,1.87.44.45,1.06.68,1.84.68,1.1,0,1.91-.36,2.43-1.07.52-.72.79-1.84.79-3.36v-1.09ZM129.48,21.56v7.07c0,.5,0,.97.02,1.39-.04,1.39-1.2,2.52-2.6,2.52h-2.45l-.22-2.47c-.75.96-1.59,1.68-2.54,2.15-.94.48-1.99.72-3.13.72-1.67,0-3-.54-4.02-1.62-1.02-1.09-1.53-2.5-1.53-4.26,0-2.13.78-3.77,2.35-4.91,1.57-1.14,3.82-1.71,6.76-1.71h1.88v-.54c0-1.03-.31-1.81-.94-2.33-.62-.52-1.55-.79-2.76-.79-.87,0-1.74.15-2.6.45-.86.3-1.67.75-2.4,1.33l-.29-4.27c1.18-.43,2.33-.76,3.43-.99,1.1-.22,2.16-.33,3.19-.33,2.92,0,4.96.61,6.11,1.83,1.16,1.22,1.74,3.48,1.74,6.77"/><path class="cls-2" d="M80.92,19.43v10.58c-.04,1.4-1.2,2.53-2.6,2.53h-3.02v-11.85c0-1.05-.17-1.81-.52-2.3-.34-.49-.88-.73-1.62-.73-.83,0-1.47.34-1.91,1.01-.44.68-.66,1.66-.66,2.95v10.92h-5.63v-15.02c0-1.11-.01-1.95-.04-2.53-.03-.57-.07-1.12-.14-1.62h5.14c.07.58.12,1.1.15,1.58.03.47.05.92.05,1.34.43-1.04,1.13-1.85,2.08-2.44.96-.59,2.05-.89,3.28-.89,1.77,0,3.12.55,4.05,1.65.92,1.1,1.39,2.7,1.39,4.82"/><path class="cls-2" d="M89.87,24.47c.14,1.52.6,2.66,1.38,3.42.78.76,1.87,1.14,3.28,1.14.83,0,1.67-.12,2.5-.36.83-.25,1.68-.62,2.55-1.12.13,2.97.57,4.35-2.79,5.07-1.02.22-2.04.33-3.04.33-3.01,0-5.35-.86-7.01-2.59-1.66-1.73-2.49-4.16-2.49-7.29s.76-5.47,2.27-7.32c1.51-1.86,3.49-2.78,5.94-2.78,2.62,0,4.65.9,6.09,2.68,1.45,1.78,2.17,4.31,2.17,7.57,0,.34,0,.59,0,.76,0,.17-.02.33-.03.49l-10.81.02ZM95.5,21.36c0-.19,0-.38.02-.57.01-.19.02-.29.02-.3,0-1.18-.23-2.09-.7-2.75-.48-.65-1.14-.98-1.99-.98-.97,0-1.7.37-2.19,1.11-.49.73-.79,1.89-.89,3.49h5.74Z"/><path class="cls-2" d="M106.83,13.37h3.03v19.88c0,2.73-.46,4.66-1.38,5.81-.92,1.14-2.44,1.7-4.55,1.7-.44,0-.88-.03-1.33-.1-.45-.07-.93-.17-1.44-.31l.18-3.86c.15.02.29.05.43.07.14.02.33.02.57.02.73,0,1.24-.24,1.52-.72s.41-1.57.41-3.28V15.88c.05-1.38,1.18-2.49,2.56-2.51M106.88,5.11h2.99v2.47c-.04,1.4-1.2,2.53-2.6,2.53h-2.99v-2.48c.04-1.39,1.2-2.52,2.6-2.52"/><path class="cls-2" d="M144.74,13.03v5.14s-.11-.01-.22-.04c-.54-.12-.92-.18-1.12-.18-1.39,0-2.42.43-3.06,1.28-.65.84-.97,2.21-.97,4.09v6.69c-.04,1.4-1.2,2.53-2.6,2.53h-3.02v-15.02c0-.64,0-1.19-.01-1.65.05-1.33,1.1-2.41,2.42-2.5h2.56c0,.05.01.12.01.2.1,1.16.15,2.01.15,2.55v.58c.41-1.15,1.06-2.05,1.95-2.73.89-.67,1.88-1.01,2.97-1.01.2,0,.49.02.86.06.04.01.07.02.09.02"/><path class="cls-2" d="M158.09,12.4h10.76v1.83h-8.88v5.89h8.8v1.83h-8.8v7.41h8.8v1.83h-10.68V12.4ZM171.81,17.3h1.78v2.49c.72-.95,1.51-1.66,2.38-2.13.87-.47,1.82-.7,2.85-.7s1.97.26,2.78.79c.81.53,1.4,1.24,1.79,2.13.38.89.58,2.28.58,4.17v7.15h-1.78v-6.63c0-1.6-.07-2.67-.21-3.2-.22-.92-.62-1.61-1.21-2.07-.59-.46-1.36-.69-2.3-.69-1.09,0-2.06.36-2.92,1.07-.86.71-1.43,1.6-1.7,2.65-.17.69-.26,1.95-.26,3.78v5.09h-1.78v-13.9ZM199.8,17.3h1.78v11.07c0,1.95-.17,3.37-.51,4.28-.47,1.27-1.28,2.26-2.44,2.95-1.16.69-2.55,1.04-4.17,1.04-1.19,0-2.26-.17-3.21-.51-.95-.34-1.72-.79-2.32-1.37-.59-.57-1.14-1.4-1.65-2.5h1.94c.53.93,1.21,1.61,2.05,2.06.83.44,1.87.67,3.11.67s2.25-.23,3.09-.68c.84-.45,1.44-1.02,1.8-1.7.36-.68.54-1.79.54-3.32v-.72c-.67.85-1.5,1.51-2.47,1.96-.97.46-2,.68-3.09.68-1.28,0-2.48-.32-3.61-.95-1.13-.63-1.99-1.49-2.61-2.56-.62-1.07-.92-2.25-.92-3.53s.32-2.48.96-3.6c.64-1.11,1.52-1.99,2.65-2.64,1.13-.65,2.32-.97,3.57-.97,1.04,0,2.01.21,2.91.64.9.42,1.77,1.13,2.6,2.12v-2.42ZM194.52,18.69c-1.01,0-1.95.24-2.82.73-.87.49-1.55,1.16-2.04,2.03-.49.86-.74,1.8-.74,2.81,0,1.52.51,2.78,1.53,3.78,1.02.99,2.35,1.49,3.97,1.49s2.97-.49,3.97-1.48c1-.99,1.5-2.29,1.5-3.9,0-1.05-.23-1.98-.69-2.8-.46-.82-1.11-1.47-1.95-1.95-.84-.48-1.75-.72-2.72-.72M217.14,26.59l1.51.79c-.5.96-1.07,1.75-1.72,2.34-.65.59-1.38,1.04-2.19,1.35-.82.31-1.73.46-2.76.46-2.28,0-4.05-.74-5.34-2.23-1.28-1.48-1.92-3.16-1.92-5.03,0-1.76.54-3.33,1.63-4.7,1.37-1.75,3.22-2.63,5.53-2.63s4.28.9,5.7,2.69c1.01,1.26,1.52,2.84,1.54,4.74h-12.57c.04,1.61.56,2.93,1.55,3.95,1,1.03,2.24,1.54,3.71,1.54.71,0,1.41-.12,2.08-.37.67-.25,1.24-.57,1.71-.97.47-.41.98-1.06,1.53-1.96M217.16,22.85c-.24-.96-.59-1.71-1.05-2.29-.46-.57-1.07-1.03-1.82-1.38-.75-.35-1.55-.52-2.38-.52-1.37,0-2.55.44-3.54,1.31-.72.64-1.27,1.6-1.64,2.88h10.43ZM222.42,17.3h1.78v2.49c.72-.95,1.52-1.66,2.38-2.13.87-.47,1.82-.7,2.85-.7s1.97.26,2.78.79c.81.53,1.4,1.24,1.79,2.13.38.89.58,2.28.58,4.17v7.15h-1.78v-6.63c0-1.6-.07-2.67-.21-3.2-.22-.92-.62-1.61-1.21-2.07-.59-.46-1.36-.69-2.31-.69-1.09,0-2.06.36-2.92,1.07-.86.71-1.43,1.6-1.7,2.65-.17.69-.26,1.95-.26,3.78v5.09h-1.78v-13.9ZM238.39,11.93h1.78v7.88c.73-.95,1.53-1.67,2.4-2.14.87-.48,1.82-.71,2.83-.71s1.97.26,2.78.79c.81.53,1.41,1.24,1.79,2.13.38.89.58,2.28.58,4.18v7.15h-1.78v-6.63c0-1.6-.07-2.67-.19-3.2-.22-.92-.63-1.61-1.21-2.07-.58-.46-1.35-.69-2.3-.69-1.09,0-2.06.36-2.92,1.07-.86.71-1.43,1.6-1.7,2.65-.17.68-.26,1.94-.26,3.78v5.09h-1.78V11.93ZM268.21,17.3v13.9h-1.78v-2.39c-.75.91-1.59,1.6-2.52,2.05-.93.45-1.95.68-3.06.68-1.96,0-3.64-.71-5.04-2.13-1.39-1.43-2.09-3.16-2.09-5.2s.7-3.7,2.11-5.12c1.4-1.42,3.09-2.13,5.07-2.13,1.14,0,2.17.24,3.09.72.92.48,1.73,1.2,2.43,2.18v-2.56h1.78ZM261.04,18.69c-1,0-1.92.24-2.75.73-.84.48-1.51,1.17-2.01,2.05-.5.88-.75,1.81-.75,2.8s.25,1.91.75,2.8c.5.89,1.17,1.59,2.02,2.08.85.5,1.75.75,2.72.75s1.9-.24,2.78-.74c.88-.49,1.55-1.16,2.02-2,.47-.84.71-1.78.71-2.84,0-1.6-.53-2.94-1.59-4.02-1.06-1.08-2.36-1.62-3.9-1.62M271.57,17.3h1.83v2.03c.55-.8,1.12-1.4,1.73-1.79.61-.39,1.24-.58,1.89-.58.5,0,1.03.16,1.59.47l-.93,1.5c-.37-.16-.69-.24-.95-.24-.6,0-1.18.24-1.73.73-.55.49-.98,1.25-1.27,2.28-.22.79-.33,2.39-.33,4.8v4.7h-1.83v-13.9ZM280.75,11.59c.41,0,.75.14,1.04.44.29.29.43.64.43,1.05s-.14.75-.43,1.04c-.29.29-.63.44-1.04.44s-.74-.14-1.03-.44c-.29-.29-.43-.64-.43-1.04s.14-.76.43-1.05c.29-.29.63-.44,1.03-.44M279.86,17.3h1.78v13.9h-1.78v-13.9ZM299.22,17.3v13.9h-1.78v-2.39c-.75.91-1.59,1.6-2.52,2.05-.93.45-1.95.68-3.06.68-1.96,0-3.64-.71-5.04-2.13-1.39-1.43-2.09-3.16-2.09-5.2s.7-3.7,2.11-5.12c1.4-1.42,3.09-2.13,5.07-2.13,1.14,0,2.17.24,3.09.72.92.48,1.73,1.2,2.43,2.18v-2.56h1.78ZM292.05,18.69c-1,0-1.92.24-2.75.73-.84.48-1.51,1.17-2.01,2.05-.5.88-.75,1.81-.75,2.8s.25,1.91.75,2.8c.5.89,1.17,1.59,2.02,2.08.85.5,1.76.75,2.72.75s1.9-.24,2.78-.74c.88-.49,1.55-1.16,2.02-2,.47-.84.71-1.78.71-2.84,0-1.6-.53-2.94-1.59-4.02-1.06-1.08-2.36-1.62-3.9-1.62"/><text class="cls-3" transform="translate(183.97 50.07)"><tspan x="0" y="0">LOTEAMENTOS</tspan></text></svg>